<?xml version="1.0" standalone="no"?>
<!DOCTYPE svg PUBLIC "-//W3C//DTD SVG 20010904//EN"
 "http://www.w3.org/TR/2001/REC-SVG-20010904/DTD/svg10.dtd">
<svg version="1.0" xmlns="http://www.w3.org/2000/svg"
 width="225.000000pt" height="225.000000pt" viewBox="0 0 225.000000 225.000000"
 preserveAspectRatio="xMidYMid meet">
<metadata>
Created by potrace 1.14, written by Peter Selinger 2001-2017
</metadata>
<g transform="translate(0.000000,225.000000) scale(0.100000,-0.100000)"
fill="#000000" stroke="none">
<path d="M822 1509 c-38 -5 -81 -18 -108 -34 -25 -15 -118 -98 -207 -185
l-162 -159 109 -1 109 0 108 105 c60 58 124 112 143 120 29 12 97 15 351 15
l315 0 78 75 77 74 -375 -1 c-206 0 -403 -4 -438 -9z"/>
<path d="M1470 1325 l-195 -195 120 0 120 0 195 195 195 195 -120 0 -120 0
-195 -195z"/>
<path d="M862 1339 c-49 -9 -88 -38 -187 -138 l-69 -71 97 0 98 0 48 40 47 40
215 0 215 0 62 63 c34 34 62 66 62 70 0 10 -535 7 -588 -4z"/>
<path d="M340 845 c0 -93 2 -105 18 -105 14 0 17 7 14 45 l-4 45 71 0 c55 0
71 3 71 15 0 11 -16 15 -67 17 l-68 3 0 30 0 30 68 3 c97 4 83 22 -18 22 l-85
0 0 -105z"/>
<path d="M1380 845 c0 -87 3 -105 15 -105 12 0 15 18 15 105 0 87 -3 105 -15
105 -12 0 -15 -18 -15 -105z"/>
<path d="M1680 940 c0 -5 14 -10 30 -10 l30 0 0 -85 0 -85 -30 0 c-16 0 -30
-4 -30 -10 0 -6 32 -10 75 -10 72 0 105 15 48 22 l-28 3 -3 93 -3 92 -44 0
c-25 0 -45 -4 -45 -10z"/>
<path d="M554 896 c-15 -11 -19 -26 -19 -70 0 -67 16 -86 76 -93 35 -4 50 0
72 17 23 18 27 29 27 69 0 70 -19 91 -84 91 -29 0 -61 -6 -72 -14z m115 -20
c7 -8 11 -36 9 -63 l-3 -48 -48 -3 c-44 -3 -48 -1 -58 25 -12 32 -4 89 14 96
25 11 75 6 86 -7z"/>
<path d="M757 892 c-23 -25 -24 -152 -2 -152 12 0 15 14 15 69 0 73 5 81 56
81 13 0 24 5 24 10 0 18 -76 11 -93 -8z"/>
<path d="M880 825 c0 -69 3 -85 15 -85 12 0 15 14 15 70 l0 70 45 0 45 0 0
-70 c0 -56 3 -70 15 -70 12 0 15 14 15 70 l0 70 40 0 40 0 0 -70 c0 -56 3 -70
15 -70 12 0 15 15 15 75 0 93 -3 95 -149 95 l-111 0 0 -85z"/>
<path d="M1180 837 c0 -43 5 -78 12 -85 7 -7 40 -12 80 -12 l68 0 0 85 c0 69
-3 85 -15 85 -12 0 -15 -15 -15 -75 l0 -75 -34 0 c-62 0 -66 5 -66 81 0 55 -3
69 -15 69 -12 0 -15 -15 -15 -73z"/>
<path d="M1450 901 c0 -6 23 -11 52 -13 l52 -3 -58 -43 c-48 -36 -57 -48 -54
-70 3 -26 5 -27 81 -30 l77 -3 0 70 c0 89 -11 101 -91 101 -32 0 -59 -4 -59
-9z m120 -92 l0 -50 -47 3 c-61 4 -62 19 -3 63 25 19 46 35 48 35 1 0 2 -23 2
-51z"/>
<path d="M1886 748 c3 -5 10 -6 15 -3 13 9 11 12 -6 12 -8 0 -12 -4 -9 -9z"/>
</g>
</svg>
